<?xml version="1.0" standalone="no"?>
<!DOCTYPE svg PUBLIC "-//W3C//DTD SVG 20010904//EN"
 "http://www.w3.org/TR/2001/REC-SVG-20010904/DTD/svg10.dtd">
<svg version="1.0" xmlns="http://www.w3.org/2000/svg"
 width="1551.000000pt" height="1551.000000pt" viewBox="0 0 1551.000000 1551.000000"
 preserveAspectRatio="xMidYMid meet">
<metadata>
Created by potrace 1.14, written by Peter Selinger 2001-2017
</metadata>
<g transform="translate(0.000000,1551.000000) scale(0.100000,-0.100000)"
fill="#000000" stroke="none">
<path d="M8067 10664 c-1 -1 -42 -4 -92 -7 -244 -17 -540 -70 -792 -142 -553
-159 -1041 -424 -1493 -810 -48 -41 -350 -343 -380 -380 -14 -17 -46 -55 -71
-85 -185 -221 -340 -463 -484 -755 -190 -385 -288 -684 -359 -1105 -51 -299
-65 -754 -31 -1025 2 -16 9 -70 15 -120 42 -337 165 -768 308 -1080 209 -455
455 -809 811 -1166 473 -472 1030 -802 1671 -990 199 -58 403 -99 680 -134 66
-9 300 -19 425 -18 214 0 371 12 575 44 678 105 1308 383 1850 815 148 119
434 398 551 539 534 644 834 1380 905 2220 10 116 11 429 2 537 -8 108 -26
282 -33 318 -2 14 -11 68 -20 120 -120 710 -481 1434 -980 1969 -144 154 -261
263 -425 395 -553 447 -1216 730 -1950 831 -91 13 -230 22 -385 25 -88 1 -191
3 -228 4 -38 0 -69 0 -70 0z"/>
</g>
</svg>
